<?xml version="1.0" encoding="UTF-8" standalone="no"?>
<!-- Created with Inkscape (http://www.inkscape.org/) -->

<svg
   width="384.70789"
   height="388.37088"
   viewBox="0 0 101.78729 102.75646"
   version="1.1"
   id="svg1"
   xml:space="preserve"
   xmlns="http://www.w3.org/2000/svg"
   xmlns:svg="http://www.w3.org/2000/svg"><defs
     id="defs1"><clipPath
       clipPathUnits="userSpaceOnUse"
       id="clipPath7"><path
         d="M 0,584.708 H 595.276 V 0 H 0 Z"
         transform="translate(-279.0742,-377.40741)"
         id="path7" /></clipPath><clipPath
       clipPathUnits="userSpaceOnUse"
       id="clipPath9"><path
         d="M 0,584.708 H 595.276 V 0 H 0 Z"
         transform="translate(-259.72371,-380.09011)"
         id="path9" /></clipPath><clipPath
       clipPathUnits="userSpaceOnUse"
       id="clipPath11"><path
         d="M 0,584.708 H 595.276 V 0 H 0 Z"
         transform="translate(-434.06961,-453.16761)"
         id="path11" /></clipPath><clipPath
       clipPathUnits="userSpaceOnUse"
       id="clipPath13"><path
         d="M 0,584.708 H 595.276 V 0 H 0 Z"
         transform="translate(-387.83851,-451.18661)"
         id="path13" /></clipPath><clipPath
       clipPathUnits="userSpaceOnUse"
       id="clipPath15"><path
         d="M 0,584.708 H 595.276 V 0 H 0 Z"
         transform="translate(-294.74041,-368.41311)"
         id="path15" /></clipPath><clipPath
       clipPathUnits="userSpaceOnUse"
       id="clipPath17"><path
         d="M 0,584.708 H 595.276 V 0 H 0 Z"
         transform="translate(-249.02251,-380.05011)"
         id="path17" /></clipPath><clipPath
       clipPathUnits="userSpaceOnUse"
       id="clipPath19"><path
         d="M 0,584.708 H 595.276 V 0 H 0 Z"
         transform="translate(-156.1186,-402.17371)"
         id="path19" /></clipPath><clipPath
       clipPathUnits="userSpaceOnUse"
       id="clipPath21"><path
         d="M 0,584.708 H 595.276 V 0 H 0 Z"
         transform="translate(-271.59811,-406.95881)"
         id="path21" /></clipPath><clipPath
       clipPathUnits="userSpaceOnUse"
       id="clipPath23"><path
         d="M 0,584.708 H 595.276 V 0 H 0 Z"
         transform="translate(-307.99571,-352.49821)"
         id="path23" /></clipPath></defs><g
     id="g1"
     transform="matrix(0.26458333,0,0,0.26458333,-55.070739,-13.752629)"><g
       id="group-MC0"><g
         id="g2"><path
           id="path6"
           d="M 0,0 C 6.639,0.707 10.431,-3.89 9.332,-10.33 8.605,-14.592 5.343,-23.018 3.756,-27.424 2.084,-32.067 1.044,-36.005 -4.035,-37.97 c -5.832,-2.257 -10.656,1.427 -10.589,7.558 0.052,4.709 5.3,21.034 7.573,25.463 C -5.509,-1.944 -3.429,-0.365 0,0"
           style="display:inline;fill:#29387e;fill-opacity:1;fill-rule:nonzero;stroke:none"
           transform="matrix(1.3333333,0,0,-1.3333333,372.09893,276.4008)"
           clip-path="url(#clipPath7)" /><path
           id="path8"
           d="M 0,0 C 5.981,1.009 10.113,-2.193 9.387,-8.387 8.949,-12.126 6.469,-20.03 5.327,-23.997 3.688,-29.695 2.76,-35.11 -4.711,-34.224 c -3.984,0.473 -6.937,4.086 -6.845,8.079 0.062,2.717 2.217,9.354 3.069,12.293 C -7.096,-9.056 -5.853,-0.987 0,0"
           style="display:inline;fill:#29387e;fill-opacity:1;fill-rule:nonzero;stroke:none"
           transform="matrix(1.3333333,0,0,-1.3333333,346.29827,272.82387)"
           clip-path="url(#clipPath9)" /><path
           id="path10"
           d="m 0,0 c -8.935,18.987 -25.699,36.087 -43.165,47.448 -59.179,38.497 -139.875,18.388 -174.401,-43.483 -2.833,-5.076 -5.594,-10.576 -7.28,-16.129 0.251,-0.169 0.616,0.607 0.7,0.776 26.283,53.071 88.079,78.26 143.61,56.759 47.343,-18.33 76.257,-63.143 69.816,-114.307 -8.267,-65.665 -69.718,-110.736 -135.081,-98.707 l -8.309,1.853 c 11.128,-4.294 23.724,-6.725 35.666,-7.289 C -27.849,-177.361 35.82,-84.641 0.803,-1.744 0.556,-1.159 0.271,-0.575 0,0"
           style="display:inline;fill:#29387e;fill-opacity:1;fill-rule:nonzero;stroke:none"
           transform="matrix(1.3333333,0,0,-1.3333333,578.75947,175.3872)"
           clip-path="url(#clipPath11)" /><path
           id="path12"
           d="M 0,0 18.008,-61.68 C 12.934,-61.828 7.899,-63.646 3.845,-66.69 0.979,-68.842 -6.612,-76.808 -9.583,-77.299 c -1.299,-0.214 -3.431,2.419 -4.425,3.439 -13.7,14.067 -26.59,28.997 -40.163,43.189 -1.471,1.538 -3.827,4.31 -5.289,5.546 -1.829,1.545 -8.815,1.272 -11.384,1.114 -7.103,-0.437 -12.706,-2.469 -18.471,-6.535 -5.675,-4.001 -16.716,-17.932 -24.056,-10.312 -4.262,4.425 -0.301,8.076 2.088,11.609 5.512,8.151 8.147,14.972 17.704,19.304 8.854,4.015 28.191,12.008 37.401,11.971 8.302,-0.033 16.919,-4.081 25.105,-5.266 C -20.617,-4.754 -10.12,-2.414 0,0"
           style="display:inline;fill:#29387e;fill-opacity:1;fill-rule:nonzero;stroke:none"
           transform="matrix(1.3333333,0,0,-1.3333333,517.118,178.02853)"
           clip-path="url(#clipPath13)" /><path
           id="path14"
           d="m 0,0 c 6.132,0.915 10.629,-2.771 10.078,-9.08 -0.359,-4.097 -4.517,-18.958 -6.493,-22.511 -3.048,-5.484 -10.277,-4.989 -13.841,-0.161 -3.163,4.286 -1.983,7.891 -0.571,12.572 1.031,3.421 5.089,15.378 7.227,17.445 C -2.675,-0.84 -1.269,-0.189 0,0"
           style="display:inline;fill:#29387e;fill-opacity:1;fill-rule:nonzero;stroke:none"
           transform="matrix(1.3333333,0,0,-1.3333333,392.9872,288.3932)"
           clip-path="url(#clipPath15)" /><path
           id="path16"
           d="m 0,0 c 1.745,-1.746 2.009,-3.983 1.751,-6.347 -0.284,-2.602 -3.224,-13.414 -4.447,-15.557 -3.474,-6.082 -13.752,-3.853 -14.523,3.184 -0.349,3.188 2.587,13.552 4.206,16.467 C -10.526,2.224 -3.673,3.676 0,0"
           style="display:inline;fill:#29387e;fill-opacity:1;fill-rule:nonzero;stroke:none"
           transform="matrix(1.3333333,0,0,-1.3333333,332.03,272.8772)"
           clip-path="url(#clipPath17)" /></g><g
         id="g3"
         style="display:inline"><path
           id="path18"
           d="m 0,0 c 0.213,25.502 10.028,52.9 23.534,74.32 45.764,72.578 145.068,91.395 214.631,40.642 5.707,-4.164 11.551,-8.832 16.235,-14.105 -0.191,-0.314 -0.989,0.356 -1.167,0.5 C 197.243,146.586 116.22,142.983 65.846,91.022 22.899,46.723 13.757,-17.445 46.873,-70.653 c 42.503,-68.288 133.25,-86.81 199.293,-40.308 l 8.23,6.27 c -10.102,-10.397 -22.771,-19.482 -35.668,-26.176 C 120.893,-181.641 3.478,-111.646 0,-2.334 -0.025,-1.562 -0.006,-0.772 0,0"
           style="display:inline;fill:#919395;fill-opacity:1;fill-rule:nonzero;stroke:none"
           transform="matrix(1.3333333,0,0,-1.3333333,208.15813,243.37907)"
           clip-path="url(#clipPath19)" /><path
           id="path20"
           d="m 0,0 c 4.483,-4.483 11.117,-3.407 16.193,-0.591 4.162,2.31 7.292,6.411 11.058,9.28 6.551,4.989 14.516,7.613 22.81,7.529 3.525,-0.035 4.589,-1.21 6.844,-3.491 13.896,-14.048 27.371,-29.325 40.83,-43.855 3.749,-4.047 11.34,-9.081 8.345,-15.337 -2.957,-6.178 -10.94,-5.094 -15.35,-1.004 -8.135,7.542 -15.095,17.302 -22.822,25.189 -0.701,0.716 -4.443,4.456 -4.943,1.946 -0.451,-2.265 5.556,-7.412 7.106,-9.118 4.919,-5.415 10.51,-10.986 15.157,-16.517 3.137,-3.733 5.768,-7.796 1.521,-12.172 -6.373,-6.566 -13.472,-0.546 -18.521,3.841 -2.959,2.572 -14.007,14.238 -16.578,14.774 -3.121,0.651 -1.339,-2.626 -0.257,-3.936 3.514,-4.258 10.478,-9.188 14.681,-13.325 1.853,-1.823 3.872,-3.391 4.159,-6.174 0.819,-7.954 -7.539,-9.715 -12.98,-5.647 l -20.061,17.308 -0.219,0.594 c 1.193,6.02 0.874,10.115 -4.078,14.085 -3.821,3.063 -7.159,1.871 -11.688,2.316 -1.915,5.336 -6.515,9.584 -12.485,9.176 -2.908,-0.199 -5.466,-1.701 -8.271,-2.278 -4.54,5.829 -11.398,6.183 -17.699,3.012 -6.512,8.851 -15.412,9.093 -22.547,0.774 -0.567,-0.661 -0.555,-1.7 -1.509,-1.852 -1.523,-0.244 -6.997,3.926 -9.115,4.061 l 19.615,66.501 c 0.434,0.304 1.221,-0.228 1.638,-0.408 5.523,-2.382 12.414,-8.888 18.545,-8.819 2.178,0.024 5.597,0.989 7.758,1.607 10.913,3.121 21.926,8.629 32.946,11.397 4.883,1.227 10.165,2.348 14.649,-0.639 L 44.355,47.598 C 31.433,41.54 16.32,39.738 7.674,27.265 4.644,22.894 1.578,18.38 -1.394,13.995 -4.227,9.817 -3.572,3.572 0,0"
           style="display:inline;fill:#919395;fill-opacity:1;fill-rule:nonzero;stroke:none"
           transform="matrix(1.3333333,0,0,-1.3333333,362.1308,236.99893)"
           clip-path="url(#clipPath21)" /><path
           id="path22"
           d="m 0,0 17.317,-15.019 c 2.455,-3.919 -2.475,-7.286 -6.003,-7.328 -4.213,-0.05 -11.252,6.215 -15.002,8.345 -0.237,0.348 -0.129,0.694 -0.089,1.068 0.253,2.345 1.905,8.283 2.698,10.671 0.266,0.8 0.381,1.676 1.079,2.263"
           style="display:inline;fill:#919395;fill-opacity:1;fill-rule:nonzero;stroke:none"
           transform="matrix(1.3333333,0,0,-1.3333333,410.66093,309.61307)"
           clip-path="url(#clipPath23)" /></g></g></g></svg>
